
<svg xmlns="http://www.w3.org/2000/svg" width="23.578" height="34.38" viewBox="0 0 23.578 34.38"><defs><style>.a{fill:#637172;}</style></defs><path class="a" d="M32.51,7.308A11.8,11.8,0,0,0,20.721,19.1c0,2.673,1.76,6.907,5.379,12.946,2.589,4.319,5.135,7.871,5.242,8.018l1.168,1.626,1.168-1.626c.107-.15,2.652-3.7,5.242-8.018C42.541,26,44.3,21.77,44.3,19.1A11.8,11.8,0,0,0,32.51,7.308Zm0,17.457a4.539,4.539,0,0,1-4.539-4.539h0a4.539,4.539,0,0,1,4.539-4.539h0a4.539,4.539,0,0,1,4.539,4.539h0a4.539,4.539,0,0,1-4.539,4.539Z" transform="translate(-20.721 -7.308)"/></svg>