
<svg xmlns="http://www.w3.org/2000/svg" width="33.901" height="32.285" viewBox="0 0 33.901 32.285"><defs><style>.a{fill:#637172;}</style></defs><path class="a" d="M40.385,22.7,33.165,29.7a1,1,0,0,0-.289.883l1.695,9.938a1,1,0,0,1-1.445,1.049L24.2,36.875a1,1,0,0,0-.927,0l-8.923,4.692a1,1,0,0,1-1.445-1.049L14.6,30.58a1,1,0,0,0-.289-.883L7.091,22.7A1,1,0,0,1,7.639,21l10-1.469a1,1,0,0,0,.748-.544l4.461-9.035a1,1,0,0,1,1.786,0l4.461,9.035a1,1,0,0,0,.748.544l10,1.469A1,1,0,0,1,40.385,22.7Z" transform="translate(-6.787 -9.398)"/></svg>